<svg preserveAspectRatio="none" width="100%" height="100%" overflow="visible" style="display: block;" viewBox="0 0 16 16" fill="none" xmlns="http://www.w3.org/2000/svg">
<g id="&#228;&#184;&#139;&#232;&#189;&#189;&#230;&#150;&#176;">
<path id="Vector (Stroke)" d="M2.06689 11.3335V10.6665C2.06689 10.3351 2.33513 10.0669 2.6665 10.0669C2.99787 10.0669 3.26611 10.3351 3.26611 10.6665V11.3335C3.26629 12.1065 3.89341 12.7329 4.6665 12.7329H11.3335C12.1064 12.7327 12.7327 12.1064 12.7329 11.3335V10.6665C12.7329 10.3351 13.0021 10.0669 13.3335 10.0669C13.6647 10.0671 13.9331 10.3352 13.9331 10.6665V11.3335C13.9329 12.7692 12.7692 13.9329 11.3335 13.9331H4.6665C3.23067 13.9331 2.06707 12.7693 2.06689 11.3335ZM7.3999 2.6665C7.3999 2.33524 7.66829 2.06707 7.99951 2.06689C8.33088 2.06689 8.6001 2.33513 8.6001 2.6665V9.21826L10.2427 7.57568C10.4769 7.34159 10.8561 7.34159 11.0903 7.57568C11.3246 7.81 11.3246 8.19 11.0903 8.42432L8.42432 11.0903C8.31179 11.2029 8.15864 11.2661 7.99951 11.2661C7.8405 11.266 7.68813 11.2028 7.57568 11.0903L4.90869 8.42432C4.67443 8.19006 4.67454 7.81001 4.90869 7.57568C5.14301 7.34137 5.52301 7.34137 5.75732 7.57568L7.3999 9.21826V2.6665Z" fill="#878787"/>
</g>
</svg>
